<svg xmlns="http://www.w3.org/2000/svg" xmlns:xlink="http://www.w3.org/1999/xlink" width="186" height="48" viewBox="0 0 186 48"><defs><style>.a{fill:none;}.b{clip-path:url(#a);}.c{fill:#00b2bb;}.d{fill:#007889;}.e{fill:#003b4e;}</style><clipPath id="a"><rect class="a" width="186" height="48"/></clipPath></defs><g transform="translate(-226.771 -277.796)"><g class="b" transform="translate(226.771 277.796)"><path class="c" d="M365.334,330.844v-.03a5.848,5.848,0,0,1,11.685-.031v.031a5.848,5.848,0,0,1-11.685.03m8.617,0v-.03a2.813,2.813,0,0,0-2.79-2.918,2.758,2.758,0,0,0-2.743,2.887v.031a2.809,2.809,0,0,0,2.774,2.916,2.761,2.761,0,0,0,2.759-2.886" transform="translate(-312.779 -307.293)"/><path class="c" d="M396.874,334.661l1.673-1.992a5.6,5.6,0,0,0,3.518,1.3c.806,0,1.24-.278,1.24-.741v-.031c0-.447-.356-.694-1.829-1.034-2.309-.525-4.091-1.173-4.091-3.4v-.031c0-2.006,1.6-3.457,4.2-3.457a6.845,6.845,0,0,1,4.463,1.435l-1.5,2.114a5.456,5.456,0,0,0-3.038-1.065c-.728,0-1.084.309-1.084.695v.031c0,.494.372.709,1.875,1.05,2.5.54,4.045,1.342,4.045,3.364v.031c0,2.207-1.751,3.519-4.386,3.519a7.6,7.6,0,0,1-5.083-1.79" transform="translate(-332.356 -307.344)"/><path class="c" d="M422.435,325.717h3.177l1.891,6.25,2.092-6.281h2.587l2.092,6.281,1.891-6.25h3.115l-3.627,10.88h-2.619l-2.185-6.219-2.17,6.219h-2.619Z" transform="translate(-348.222 -307.598)"/><path class="c" d="M468.342,325.564h2.9l4.618,10.88h-3.224l-.79-1.929h-4.184l-.775,1.929h-3.161Zm2.635,6.62-1.208-3.071-1.225,3.071Z" transform="translate(-373.851 -307.522)"/><path class="c" d="M497.469,325.769h3.007v8.179h5.253v2.624h-8.26Z" transform="translate(-394.797 -307.65)"/><path class="c" d="M521.614,325.769H525.8c3.874,0,6.121,2.222,6.121,5.339v.032c0,3.116-2.278,5.431-6.183,5.431h-4.123Zm4.231,8.148c1.8,0,2.991-.987,2.991-2.731v-.031c0-1.729-1.193-2.731-2.991-2.731h-1.225v5.493Z" transform="translate(-409.784 -307.65)"/><path class="c" d="M550.863,330.844v-.03a5.847,5.847,0,0,1,11.684-.031v.031a5.847,5.847,0,0,1-11.684.03m8.616,0v-.03a2.812,2.812,0,0,0-2.789-2.918,2.758,2.758,0,0,0-2.743,2.887v.031a2.809,2.809,0,0,0,2.774,2.916,2.761,2.761,0,0,0,2.758-2.886" transform="translate(-427.939 -307.293)"/><path class="c" d="M594.085,330.844v-.03A5.561,5.561,0,0,1,599.8,325.2a5.32,5.32,0,0,1,4.6,2.253l-2.263,1.744a2.908,2.908,0,0,0-2.371-1.265,2.676,2.676,0,0,0-2.588,2.856v.031a2.676,2.676,0,0,0,2.588,2.885,2.966,2.966,0,0,0,2.449-1.311l2.262,1.6a5.716,5.716,0,0,1-10.4-3.148" transform="translate(-454.768 -307.293)"/><path class="c" d="M623.867,325.769H629a4.752,4.752,0,0,1,3.533,1.172,3.341,3.341,0,0,1,.961,2.516v.03a3.418,3.418,0,0,1-2.232,3.319l2.588,3.764h-3.472l-2.185-3.271h-1.318v3.271h-3.006Zm4.99,5.185c1.023,0,1.612-.494,1.612-1.281v-.031c0-.849-.619-1.281-1.627-1.281h-1.968v2.593Z" transform="translate(-473.254 -307.65)"/><path class="c" d="M651.852,331.833v-6.064H654.9v6c0,1.559.791,2.3,2,2.3s2-.71,2-2.222v-6.08h3.053v5.987c0,3.488-2,5.016-5.083,5.016s-5.021-1.559-5.021-4.939" transform="translate(-490.624 -307.65)"/><path class="c" d="M681.266,334.4l5.44-6.1h-5.254v-2.531h9.407v2.176l-5.44,6.1h5.44v2.531h-9.593Z" transform="translate(-508.882 -307.65)"/><path class="d" d="M420.16,369.1v-2.055h-2.82V369.1h-.327v-4.387h.327v2.03h2.82v-2.03h.327V369.1Z" transform="translate(-344.857 -331.885)"/><path class="d" d="M436.3,369.051a2.191,2.191,0,0,1-2.209-2.256v-.012a2.216,2.216,0,1,1,4.43-.013c.006.006.006.006,0,.013a2.212,2.212,0,0,1-2.221,2.268m1.882-2.268a1.9,1.9,0,0,0-1.882-1.974,1.881,1.881,0,0,0-1.869,1.961v.013a1.9,1.9,0,0,0,1.882,1.974,1.881,1.881,0,0,0,1.869-1.962Z" transform="translate(-355.457 -331.761)"/><path class="d" d="M454.636,369.058a2.515,2.515,0,0,1-1.775-.7l.214-.244a2.143,2.143,0,0,0,1.579.652c.661,0,1.114-.37,1.114-.871v-.012c0-.464-.245-.733-1.246-.934-1.057-.213-1.485-.57-1.485-1.234V365.7a1.273,1.273,0,0,1,1.416-1.154,2.2,2.2,0,0,1,1.511.533l-.208.257a1.9,1.9,0,0,0-1.315-.5c-.648,0-1.076.369-1.076.827v.012c0,.464.239.746,1.284.959,1.019.207,1.447.57,1.447,1.209v.012c0,.709-.611,1.2-1.46,1.2" transform="translate(-367.108 -331.781)"/><path class="d" d="M470.725,367.465h-1.19V369.1h-.327v-4.387h1.6c.969,0,1.636.5,1.636,1.341v.013c0,.921-.8,1.4-1.718,1.4m1.391-1.391c0-.7-.541-1.059-1.334-1.059h-1.246v2.149h1.208c.819,0,1.372-.426,1.372-1.078Z" transform="translate(-377.255 -331.885)"/><rect class="d" width="0.327" height="4.387" transform="translate(98.09 32.828)"/><path class="d" d="M495.832,365.013V369.1h-.327v-4.086H493.97v-.3h3.4v.3Z" transform="translate(-392.625 -331.884)"/><path class="d" d="M512.1,369.047l-.56-1.227h-2.6l-.56,1.227h-.34l2.052-4.418h.315l2.052,4.418Zm-1.857-4.061-1.164,2.538H511.4Z" transform="translate(-401.36 -331.832)"/><path class="d" d="M527.128,369.1v-4.387h.327V368.8h2.587v.3Z" transform="translate(-413.207 -331.885)"/><path class="d" d="M555.4,369.047l-.56-1.227h-2.6l-.56,1.227h-.34l2.052-4.418h.315l2.052,4.418Zm-1.857-4.061-1.164,2.538H554.7Z" transform="translate(-428.236 -331.832)"/><path class="d" d="M570.427,369.1v-4.387h.327V368.8h2.587v.3Z" transform="translate(-440.083 -331.885)"/><path class="d" d="M585.679,369.1v-4.387h3.134v.3h-2.807v1.723h2.524v.3h-2.524v1.76h2.839v.3Z" transform="translate(-449.55 -331.885)"/><path class="d" d="M605.6,369.1v-3.81l-1.743,2.526h-.025l-1.744-2.526v3.81h-.314v-4.387h.308l1.768,2.594,1.769-2.594h.308V369.1Z" transform="translate(-459.542 -331.885)"/><path class="d" d="M624.224,367.375l-.56-1.228h-2.6l-.56,1.228h-.34l2.052-4.418h.315l2.052,4.418Zm-1.857-4.061-1.164,2.538h2.322Zm.409-.733c-.239,0-.591-.257-.806-.257-.151,0-.22.075-.314.313l-.214-.056c.12-.451.277-.583.529-.583s.592.256.806.256c.151,0,.22-.075.314-.313l.214.057c-.119.451-.277.583-.529.583" transform="translate(-470.956 -330.16)"/><path class="d" d="M640.945,369.051a2.191,2.191,0,0,1-2.209-2.256v-.012a2.216,2.216,0,1,1,4.43-.013c.006.006.006.006,0,.013a2.212,2.212,0,0,1-2.221,2.268m1.882-2.268a1.9,1.9,0,0,0-1.882-1.974,1.881,1.881,0,0,0-1.869,1.961v.013a1.9,1.9,0,0,0,1.882,1.974,1.881,1.881,0,0,0,1.869-1.962Z" transform="translate(-482.483 -331.761)"/><path class="e" d="M256.206,351.5a9.63,9.63,0,0,1-9.657-9.621H236.494a19.7,19.7,0,0,0,19.712,19.644Z" transform="translate(-232.806 -317.678)"/><path class="d" d="M246.549,309.622a9.652,9.652,0,0,1,9.657-9.647v-9.934a19.642,19.642,0,0,0-19.712,19.581Z" transform="translate(-232.806 -285.416)"/><path class="c" d="M288.465,299.975a9.692,9.692,0,0,1,9.7,9.653l9.98-.006a19.612,19.612,0,0,0-19.677-19.581Z" transform="translate(-265.065 -285.416)"/><path class="d" d="M272.662,343.338a1.476,1.476,0,0,1-1.492-1.455h-8.164a9.627,9.627,0,0,0,9.657,9.621Z" transform="translate(-249.262 -317.678)"/><path class="e" d="M288.465,351.5a9.656,9.656,0,0,0,9.7-9.614l-8.242-.006a1.445,1.445,0,0,1-1.456,1.455Z" transform="translate(-265.065 -317.678)"/><path class="c" d="M272.662,316.342a9.649,9.649,0,0,0-9.657,9.647h8.164a1.5,1.5,0,0,1,1.492-1.481Z" transform="translate(-249.262 -301.783)"/></g></g></svg>